<svg version="1.1" xmlns="http://www.w3.org/2000/svg" xmlns:xlink="http://www.w3.org/1999/xlink" x="0px" y="0px" viewBox="0 0 1590 795" style="enable-background:new 0 0 1590 795;" xml:space="preserve" id="badlands_svg">
<g id="bg">
	<image style="overflow:visible;" width="1590" height="795" xlink:href="badlands.jpg"></image>
	<g id="circs">
		<circle id="b3" style="fill:transparent; stroke:#B3292D;stroke-width:4;stroke-miterlimit:10;opacity:0;" cx="1315" cy="242" r="50"/>
		<circle id="b2" style="fill:transparent; stroke:#B3292D;stroke-width:4;stroke-miterlimit:10;opacity:0;" cx="1061" cy="518" r="50"/>
		<circle id="b1" style="fill:transparent; stroke:#B3292D;stroke-width:4;stroke-miterlimit:10;opacity:0;" cx="998" cy="640" r="50"/>
		<circle id="a3" style="fill:transparent; stroke:#B3292D;stroke-width:4;stroke-miterlimit:10;opacity:0;" cx="520" cy="242" r="50"/>
		<circle id="a2" style="fill:transparent; stroke:#B3292D;stroke-width:4;stroke-miterlimit:10;opacity:0;" cx="266" cy="518" r="50"/>
		<circle id="a1" style="fill:transparent; stroke:#B3292D;stroke-width:4;stroke-miterlimit:10;opacity:0;" cx="203" cy="640" r="50"/>
	</g>
</g>


<g id="interface_overlay">

<g id="A">
<path style="fill:#FFFFFF;" d="M56.2,57.4h-5.8c-0.6,0-1.2-0.2-1.6-0.5c-0.4-0.3-0.7-0.7-0.9-1.2l-1.9-5.6H33.9L32,55.8 c-0.2,0.4-0.5,0.8-0.9,1.1s-0.9,0.5-1.6,0.5h-5.8l12.4-32.1h7.6L56.2,57.4z M44.4,45.2l-3-8.8c-0.2-0.6-0.5-1.2-0.7-2 c-0.2-0.8-0.5-1.6-0.7-2.5c-0.2,0.9-0.5,1.7-0.7,2.5c-0.2,0.8-0.5,1.4-0.7,2l-2.9,8.7H44.4z"/>
</g>

<g id="B">
<path style="fill:#FFFFFF;" d="M835.2,25.4c2.2,0,4.1,0.2,5.7,0.6s2.8,1,3.8,1.7s1.7,1.7,2.1,2.7c0.4,1.1,0.7,2.3,0.7,3.6 c0,0.7-0.1,1.4-0.3,2.1c-0.2,0.7-0.5,1.3-1,1.9c-0.4,0.6-1,1.1-1.7,1.6c-0.7,0.5-1.5,0.9-2.5,1.3c2.1,0.5,3.7,1.3,4.7,2.5 c1,1.1,1.5,2.6,1.5,4.4c0,1.4-0.3,2.6-0.8,3.8c-0.5,1.2-1.3,2.2-2.3,3.1c-1,0.9-2.3,1.6-3.8,2c-1.5,0.5-3.2,0.7-5.1,0.7h-12.8 V25.4H835.2z M830.8,30.9v7.9h3.9c0.8,0,1.6-0.1,2.2-0.2c0.7-0.1,1.2-0.3,1.7-0.6s0.8-0.7,1.1-1.2c0.2-0.5,0.4-1.2,0.4-1.9 c0-0.8-0.1-1.4-0.3-1.9c-0.2-0.5-0.5-0.9-0.9-1.2c-0.4-0.3-0.9-0.5-1.5-0.7s-1.3-0.2-2.2-0.2H830.8z M836,51.8 c1,0,1.8-0.1,2.4-0.4s1.1-0.6,1.5-1c0.4-0.4,0.6-0.8,0.7-1.3s0.2-1,0.2-1.5c0-0.6-0.1-1.1-0.2-1.6c-0.2-0.5-0.4-0.9-0.8-1.2 c-0.4-0.3-0.9-0.6-1.5-0.7c-0.6-0.2-1.4-0.3-2.3-0.3h-5.2v8H836z"/>
</g>

<g id="score">
<g id="score_1">
<circle id="score_circ_1" style="fill:none;stroke:#FFFFFF;stroke-width:5;stroke-miterlimit:10;" cx="1432" cy="38" r="19"/>
<path style="fill:#FFFEFF;" d="M1438.6,44.8v3.4h-12.4v-3.4h4.2v-11c0-0.3,0-0.6,0-0.8c0-0.3,0-0.6,0-0.9l-2.5,2.1 c-0.2,0.2-0.4,0.3-0.7,0.3s-0.4,0-0.6,0c-0.2,0-0.4-0.1-0.5-0.2c-0.2-0.1-0.3-0.2-0.3-0.3l-1.5-1.9l6.8-5.7h3.8v18.5H1438.6z"/>
<line id="score_strike_1" style="fill:none;stroke:#BE1E2D;stroke-width:8;stroke-miterlimit:10;opacity:0;" x1="1412" y1="58" x2="1452" y2="18"/>
</g>

<g id="score_2">
<circle id="score_circ_2" style="fill:none;stroke:#FFFFFF;stroke-width:5;stroke-miterlimit:10;" cx="1488" cy="38" r="19"/>
<path style="fill:#FFFEFF;" d="M1493.5,44c0.5,0,0.9,0.1,1.2,0.4c0.3,0.3,0.4,0.6,0.4,1.1v2.7h-15.4v-1.5c0-0.3,0.1-0.6,0.2-0.9 c0.1-0.3,0.3-0.6,0.6-0.9l6.3-6.3c0.5-0.5,1-1.1,1.4-1.5c0.4-0.5,0.7-1,1-1.4c0.3-0.5,0.5-0.9,0.6-1.4s0.2-1,0.2-1.5 c0-0.9-0.2-1.5-0.6-2s-1-0.7-1.9-0.7c-0.7,0-1.3,0.2-1.7,0.5c-0.5,0.4-0.8,0.8-1,1.4c-0.2,0.6-0.5,0.9-0.8,1.1 c-0.3,0.2-0.8,0.2-1.5,0.1l-2.5-0.4c0.2-1.1,0.5-2,0.9-2.8s1-1.5,1.7-2c0.7-0.5,1.4-0.9,2.3-1.2c0.9-0.3,1.8-0.4,2.8-0.4 c1.1,0,2.1,0.2,2.9,0.5s1.6,0.8,2.2,1.3c0.6,0.6,1.1,1.2,1.4,2c0.3,0.8,0.5,1.6,0.5,2.6c0,0.8-0.1,1.5-0.3,2.2 c-0.2,0.7-0.5,1.3-0.9,1.9c-0.4,0.6-0.8,1.2-1.4,1.8c-0.5,0.6-1.1,1.2-1.6,1.7l-4.3,4.4c0.5-0.2,1.1-0.3,1.6-0.4s1-0.1,1.5-0.1 H1493.5z"/>
<line id="score_strike_2" style="fill:none;stroke:#BE1E2D;stroke-width:8;stroke-miterlimit:10;opacity:0;" x1="1468" y1="58" x2="1508" y2="18"/>
</g>

<g id="score_3">
<circle id="score_circ_3" style="fill:none;stroke:#FFFFFF;stroke-width:5;stroke-miterlimit:10;" cx="1546" cy="38" r="19"/>
<path style="fill:#FFFEFF;" d="M1539.2,32.6c0.2-1.1,0.5-2,0.9-2.8s1-1.5,1.7-2c0.7-0.5,1.4-0.9,2.3-1.2c0.9-0.3,1.8-0.4,2.8-0.4 c1.1,0,2,0.2,2.9,0.5c0.8,0.3,1.5,0.7,2.1,1.2c0.6,0.5,1,1.1,1.3,1.8c0.3,0.7,0.5,1.4,0.5,2.2c0,0.7-0.1,1.3-0.2,1.8 s-0.3,1-0.6,1.4c-0.3,0.4-0.6,0.7-1,1c-0.4,0.3-0.9,0.5-1.4,0.7c2.4,0.9,3.6,2.5,3.6,5c0,1.2-0.2,2.2-0.6,3 c-0.4,0.9-1,1.6-1.7,2.1c-0.7,0.6-1.5,1-2.5,1.3s-1.9,0.4-2.9,0.4c-1,0-2-0.1-2.8-0.3c-0.8-0.2-1.5-0.6-2.2-1s-1.2-1.1-1.7-1.8 c-0.5-0.7-0.9-1.6-1.2-2.6l2.1-0.8c0.5-0.2,1-0.3,1.5-0.2c0.5,0.1,0.8,0.3,1,0.7c0.5,0.8,0.9,1.4,1.4,1.8 c0.5,0.4,1.1,0.6,1.8,0.6c0.5,0,1-0.1,1.4-0.3s0.7-0.4,1-0.7c0.3-0.3,0.4-0.6,0.6-0.9c0.1-0.3,0.2-0.7,0.2-1.1 c0-0.5,0-0.9-0.1-1.3s-0.2-0.7-0.5-1c-0.3-0.3-0.8-0.5-1.4-0.6c-0.6-0.1-1.4-0.2-2.5-0.2v-3.2c0.9,0,1.6-0.1,2.2-0.2 c0.6-0.1,1-0.3,1.3-0.6c0.3-0.2,0.5-0.5,0.6-0.9c0.1-0.4,0.1-0.7,0.1-1.2c0-0.9-0.2-1.5-0.6-2s-1-0.7-1.9-0.7 c-0.7,0-1.3,0.2-1.7,0.5c-0.5,0.4-0.8,0.8-1,1.4c-0.2,0.6-0.5,0.9-0.8,1.1c-0.3,0.2-0.8,0.2-1.5,0.1L1539.2,32.6z"/>
<line id="score_strike_3" style="fill:none;stroke:#BE1E2D;stroke-width:8;stroke-miterlimit:10;opacity:0;" x1="1526" y1="58" x2="1566" y2="18"/>
</g>
</g><!-- score -->

<g id="frame">
<rect x="1" y="1" style="fill:none;stroke:#FFFFFF;stroke-width:4;stroke-miterlimit:10;" width="1588" height="793"/>
<line style="fill:none;stroke:#FFFFFF;stroke-width:2;stroke-miterlimit:10;" x1="795" y1="1" x2="795" y2="794"/>
</g>

</g><!-- interface -->


</svg>
