<svg version="1.1" id="Layer_1" xmlns="http://www.w3.org/2000/svg" xmlns:xlink="http://www.w3.org/1999/xlink" x="0px" y="0px" viewBox="0 0 120 120" style="enable-background:new 0 0 120 120;" xml:space="preserve">
<circle id="redBg" style="fill:#B3292D;" cx="60" cy="60" r="49"/>
<path id="whiteRing" style="fill:#FFFFFF;" d="M60,110c-27.6,0-50-22.4-50-50s22.4-50,50-50s50,22.4,50,50S87.6,110,60,110z M60,14 c-25.4,0-46,20.6-46,46s20.6,46,46,46s46-20.6,46-46S85.4,14,60,14z"/>
<g id="txt_x5F_goTo">
	<path id="tx_g" style="fill:#FFFFFF;" d="M33.1,58.3h5.2v6.2c-0.7,0.5-1.5,0.9-2.4,1.2C35,65.8,34.2,66,33.2,66 c-1.2,0-2.3-0.2-3.3-0.6c-1-0.4-1.8-0.9-2.5-1.6c-0.7-0.7-1.2-1.5-1.6-2.4c-0.4-0.9-0.6-1.9-0.6-3c0-1.1,0.2-2.1,0.5-3 c0.4-0.9,0.9-1.7,1.5-2.4c0.7-0.7,1.5-1.2,2.4-1.5c1-0.4,2-0.5,3.2-0.5c0.6,0,1.2,0,1.7,0.1s1,0.2,1.5,0.4c0.4,0.2,0.9,0.4,1.2,0.6 c0.4,0.2,0.7,0.5,1,0.8l-1,1.5c-0.2,0.2-0.4,0.4-0.6,0.4c-0.2,0.1-0.5,0-0.8-0.2c-0.3-0.2-0.5-0.3-0.8-0.4 c-0.2-0.1-0.5-0.2-0.7-0.3s-0.5-0.1-0.8-0.2c-0.3,0-0.6,0-0.9,0c-0.6,0-1.2,0.1-1.7,0.3c-0.5,0.2-0.9,0.5-1.3,0.9 c-0.4,0.4-0.6,0.9-0.8,1.5c-0.2,0.6-0.3,1.2-0.3,1.9c0,0.8,0.1,1.5,0.3,2.1s0.5,1.1,0.9,1.5c0.4,0.4,0.9,0.7,1.4,0.9 s1.1,0.3,1.8,0.3c0.4,0,0.8,0,1.1-0.1s0.7-0.2,1-0.3v-2.2h-1.4c-0.2,0-0.4-0.1-0.5-0.2c-0.1-0.1-0.2-0.3-0.2-0.4V58.3z"/>
	<path id="tx_o" style="fill:#FFFFFF;" d="M55.8,58.5c0,1.1-0.2,2-0.5,2.9c-0.4,0.9-0.9,1.7-1.5,2.4c-0.7,0.7-1.5,1.2-2.4,1.6 c-0.9,0.4-2,0.6-3.1,0.6s-2.2-0.2-3.1-0.6c-0.9-0.4-1.7-0.9-2.4-1.6c-0.7-0.7-1.2-1.5-1.5-2.4c-0.4-0.9-0.5-1.9-0.5-2.9 c0-1.1,0.2-2,0.5-2.9c0.4-0.9,0.9-1.7,1.5-2.4c0.7-0.7,1.5-1.2,2.4-1.6c0.9-0.4,2-0.6,3.1-0.6s2.2,0.2,3.1,0.6 c0.9,0.4,1.7,0.9,2.4,1.6c0.7,0.7,1.2,1.5,1.5,2.4C55.7,56.5,55.8,57.5,55.8,58.5z M52.4,58.5c0-0.7-0.1-1.4-0.3-1.9 c-0.2-0.6-0.5-1.1-0.8-1.5c-0.4-0.4-0.8-0.7-1.3-0.9s-1.1-0.3-1.7-0.3c-0.7,0-1.2,0.1-1.7,0.3c-0.5,0.2-0.9,0.5-1.3,0.9 c-0.4,0.4-0.6,0.9-0.8,1.5c-0.2,0.6-0.3,1.2-0.3,1.9c0,0.7,0.1,1.4,0.3,2c0.2,0.6,0.5,1.1,0.8,1.5c0.3,0.4,0.8,0.7,1.3,0.9 c0.5,0.2,1.1,0.3,1.7,0.3c0.6,0,1.2-0.1,1.7-0.3s0.9-0.5,1.3-0.9c0.4-0.4,0.6-0.9,0.8-1.5C52.3,59.9,52.4,59.2,52.4,58.5z"/>
	<path id="tx_t" style="fill:#FFFFFF;" d="M76.3,53.9h-4.1v11.9h-3.4V53.9h-4.1v-2.7h11.6V53.9z"/>
	<path id="tx_o_2" style="fill:#FFFFFF;" d="M93,58.5c0,1.1-0.2,2-0.5,2.9c-0.4,0.9-0.9,1.7-1.5,2.4s-1.5,1.2-2.4,1.6 c-0.9,0.4-2,0.6-3.1,0.6c-1.1,0-2.2-0.2-3.1-0.6c-0.9-0.4-1.7-0.9-2.4-1.6c-0.7-0.7-1.2-1.5-1.5-2.4c-0.4-0.9-0.5-1.9-0.5-2.9 c0-1.1,0.2-2,0.5-2.9s0.9-1.7,1.5-2.4c0.7-0.7,1.5-1.2,2.4-1.6c0.9-0.4,2-0.6,3.1-0.6c1.1,0,2.2,0.2,3.1,0.6s1.7,0.9,2.4,1.6 c0.7,0.7,1.2,1.5,1.5,2.4C92.8,56.5,93,57.5,93,58.5z M89.5,58.5c0-0.7-0.1-1.4-0.3-1.9s-0.5-1.1-0.8-1.5c-0.3-0.4-0.8-0.7-1.3-0.9 s-1.1-0.3-1.7-0.3c-0.7,0-1.2,0.1-1.7,0.3c-0.5,0.2-0.9,0.5-1.3,0.9c-0.4,0.4-0.6,0.9-0.8,1.5s-0.3,1.2-0.3,1.9 c0,0.7,0.1,1.4,0.3,2c0.2,0.6,0.5,1.1,0.8,1.5c0.3,0.4,0.8,0.7,1.3,0.9c0.5,0.2,1.1,0.3,1.7,0.3c0.6,0,1.2-0.1,1.7-0.3 s0.9-0.5,1.3-0.9c0.3-0.4,0.6-0.9,0.8-1.5C89.4,59.9,89.5,59.2,89.5,58.5z"/>
</g>
</svg>
